P2
# Created by Paint Shop Pro 7
89 110
255
150 121 139 144 127 113 119 102 115 142 142 145 137 102 112 121 97 111 
151 129 137 147 131 151 152 144 144 139 135 121 154 129 164 141 121 135 
150 143 159 138 136 137 133 122 168 155 119 142 126 94 99 101 133 186 204 
206 197 199 190 200 222 217 214 209 209 198 217 230 240 241 241 232 228 
232 232 235 232 240 241 245 241 248 241 241 245 241 241 241 241 168 108 
135 152 102 122 121 90 110 139 148 171 144 143 127 99 112 131 137 135 116 
140 86 139 135 100 120 144 113 100 163 138 128 112 113 131 156 123 161 
144 143 118 121 112 146 159 152 136 115 94 115 125 179 203 196 185 177 
191 204 206 206 205 206 213 212 214 230 233 241 241 231 210 218 231 232 
232 232 233 241 241 241 245 241 241 241 241 241 241 241 178 164 133 135 
108 153 140 111 138 98 136 161 157 176 135 128 124 151 145 129 118 108 
93 121 102 104 113 135 149 148 146 139 135 110 129 112 125 135 139 180 
94 111 150 129 129 174 134 123 101 117 170 175 168 145 149 164 195 204 
196 187 185 200 214 213 222 225 232 230 232 241 233 232 227 223 227 232 
228 241 241 245 241 241 245 245 245 241 241 241 241 167 178 125 125 100 
133 129 111 118 144 127 145 137 149 135 118 127 147 142 139 143 134 129 
112 100 137 159 121 120 129 138 133 125 99 140 136 116 121 121 129 139 
106 104 130 149 125 136 111 109 145 163 163 142 145 176 194 171 157 165 
184 209 213 217 222 222 225 225 232 241 237 232 224 223 224 232 232 232 
241 241 245 245 245 245 248 245 241 241 241 241 132 166 168 143 135 135 
137 129 112 141 151 128 143 118 127 162 168 159 154 138 132 112 135 121 
149 134 132 129 153 136 162 168 137 140 140 134 155 130 105 74 154 168 
144 159 170 136 115 122 142 147 147 152 163 170 155 145 146 181 213 224 
232 230 218 215 217 229 224 230 233 237 228 226 232 241 241 241 241 241 
241 245 241 248 241 245 248 245 245 245 241 160 114 160 146 118 131 136 
138 133 122 141 138 130 86 94 91 118 134 157 132 140 114 137 134 145 132 
138 140 164 144 151 154 140 149 136 131 136 158 155 151 160 169 129 138 
162 135 138 135 146 142 152 161 146 134 140 153 191 225 231 231 230 222 
207 199 195 224 224 225 216 217 224 235 237 241 241 241 241 241 241 248 
245 245 245 248 241 245 248 245 241 207 155 117 141 141 121 121 137 125 
126 140 130 101 134 107 99 84 114 110 140 165 119 118 136 140 147 147 134 
137 100 118 142 160 106 95 119 105 138 144 153 144 143 149 140 140 144 
142 130 142 141 125 107 135 189 223 231 238 237 225 222 214 212 200 200 
199 199 202 200 198 198 210 230 238 241 245 243 245 241 245 248 245 248 
248 245 245 248 245 245 248 171 201 200 152 133 130 97 112 93 115 104 129 
128 161 120 148 135 144 125 130 172 135 141 150 147 157 167 170 137 102 
120 104 118 88 158 144 136 153 154 151 146 154 154 167 138 148 135 147 
136 124 166 203 238 231 231 225 222 223 211 206 204 190 198 197 167 154 
172 174 199 207 216 232 232 238 241 241 245 241 245 245 248 248 248 248 
248 245 245 245 248 150 163 191 186 160 84 91 98 88 118 104 98 113 117 
120 133 143 141 151 140 153 145 144 134 136 164 148 173 155 132 129 130 
138 136 143 134 127 157 151 142 133 151 140 151 131 132 153 145 123 166 
220 220 215 204 206 214 206 198 180 188 173 176 195 194 166 182 183 169 
200 213 218 232 232 241 238 241 243 245 241 248 248 243 248 248 245 248 
241 245 245 146 166 102 92 196 176 132 127 134 143 123 134 167 122 135 
141 131 134 136 124 101 111 122 118 120 128 158 165 144 168 165 164 125 
122 130 151 135 123 144 130 141 138 134 128 140 150 130 133 180 187 171 
166 158 162 180 185 160 156 139 141 176 210 237 230 178 176 152 152 186 
207 224 232 232 233 238 232 238 241 241 245 245 245 248 248 245 248 248 
245 241 31 84 122 133 155 166 143 120 142 145 134 127 137 133 131 120 85 
109 112 113 112 96 105 105 106 104 134 138 129 115 123 136 138 116 127 
137 161 133 127 123 160 132 144 138 135 128 152 171 178 147 152 152 156 
156 142 139 127 134 155 179 217 230 225 216 208 185 182 184 194 215 231 
232 232 241 241 241 236 241 241 248 245 245 245 248 248 248 248 245 245 
133 115 112 156 170 127 125 149 140 118 94 113 113 127 124 94 66 71 56 
66 38 71 80 89 82 114 112 138 137 113 117 126 126 104 111 135 129 108 119 
103 126 144 137 134 124 132 169 161 128 124 138 144 134 130 120 115 115 
140 180 199 213 211 203 201 207 179 187 193 199 223 232 232 232 241 240 
241 241 241 241 241 245 241 248 248 248 248 248 248 248 154 144 129 166 
156 113 115 109 83 47 68 96 135 88 70 35 70 49 92 71 92 89 75 98 121 103 
118 111 106 132 124 112 74 85 119 101 90 112 88 85 125 138 130 133 141 
160 135 117 129 136 129 122 109 113 114 114 123 188 200 199 201 212 217 
218 210 214 208 210 209 223 232 240 240 241 241 241 241 241 241 245 241 
241 245 248 245 248 248 248 248 135 132 100 109 113 96 115 115 112 111 
78 112 132 52 53 61 52 71 57 97 130 98 97 93 92 74 89 92 85 67 89 92 97 
102 80 72 79 132 97 102 131 119 133 124 154 146 129 120 133 130 112 127 
120 107 115 115 172 190 208 216 224 217 208 207 207 208 219 219 232 232 
232 241 241 241 241 245 241 241 241 241 241 241 245 248 245 248 245 248 
248 79 92 97 83 66 99 88 93 68 136 107 99 63 38 52 53 61 71 87 70 89 70 
69 106 80 88 70 81 70 66 67 62 83 70 95 90 64 70 144 136 123 138 129 145 
137 129 126 128 118 116 105 113 104 108 115 145 212 222 210 216 215 163 
151 168 199 224 232 232 241 245 241 245 241 241 245 243 241 241 241 241 
241 241 241 245 245 248 248 245 245 39 52 62 88 70 81 86 99 93 76 64 62 
68 57 56 63 83 62 93 59 101 101 66 83 89 69 74 66 71 63 61 46 89 65 58 
55 49 93 129 126 129 136 138 138 137 128 127 121 117 118 108 107 105 96 
135 162 213 238 224 210 194 153 165 175 202 224 241 241 245 248 241 245 
241 245 241 241 241 241 241 241 245 241 241 241 245 248 245 241 245 61 
77 74 65 43 74 65 46 70 58 31 48 56 70 71 80 76 58 87 93 76 108 66 48 88 
74 50 56 52 53 68 63 72 63 49 21 40 114 117 115 124 129 141 133 130 129 
128 119 115 106 106 112 106 121 164 185 199 217 214 208 177 159 184 205 
217 228 232 241 243 241 248 245 245 241 241 238 241 241 241 241 241 241 
241 245 241 245 248 245 245 106 106 86 96 102 88 98 92 45 72 75 66 53 120 
61 79 53 82 71 52 93 94 45 56 61 69 69 75 57 67 66 39 73 83 78 47 100 120 
118 119 129 130 129 126 130 122 115 122 114 104 113 114 104 113 152 158 
173 169 144 140 125 142 153 167 207 233 241 241 241 245 245 245 245 241 
245 241 233 233 241 238 241 241 241 241 241 245 245 245 248 106 110 100 
70 83 84 63 68 46 116 93 74 104 131 36 44 39 58 73 66 78 79 71 68 16 99 
84 83 106 126 39 86 82 96 40 71 110 111 115 127 131 120 126 128 130 138 
120 114 105 108 108 106 102 121 152 151 157 143 132 132 149 137 160 175 
203 224 232 241 241 241 241 245 245 245 241 245 241 232 233 238 238 241 
241 241 245 241 241 241 241 69 114 53 83 36 39 52 63 61 79 82 82 38 91 
15 43 40 45 58 66 71 61 66 99 93 94 69 100 68 144 92 75 86 57 49 92 92 
113 128 127 128 121 129 129 128 127 112 105 103 109 104 100 108 138 147 
172 185 170 162 151 143 167 170 176 208 225 232 238 241 245 241 241 241 
241 248 245 241 241 232 238 238 238 241 241 238 241 245 241 245 95 85 97 
115 57 93 87 84 56 66 48 48 38 83 32 79 73 63 75 73 91 88 69 62 69 70 84 
71 85 102 128 125 134 121 100 89 103 115 129 121 112 120 127 119 123 121 
113 100 114 107 107 105 138 157 152 176 223 216 207 198 198 198 215 219 
218 225 236 241 241 245 241 245 241 241 245 241 241 241 232 230 233 233 
241 241 241 241 241 245 241 71 88 88 102 83 83 82 59 28 86 66 69 57 53 
51 58 68 79 67 57 76 90 80 45 44 66 83 80 92 110 138 144 108 138 113 80 
113 125 121 114 122 126 118 117 114 111 113 103 98 109 112 120 152 180 
193 177 195 224 212 199 184 193 217 224 232 228 241 241 241 245 245 241 
241 241 241 241 241 241 241 233 225 233 238 241 241 245 241 241 241 108 
134 135 141 80 66 52 60 72 102 74 55 107 106 88 97 56 107 87 72 94 83 89 
54 60 36 74 76 101 103 131 135 114 96 89 92 124 121 113 114 119 127 120 
116 105 107 106 107 100 106 115 131 171 206 217 209 202 200 208 202 194 
202 223 225 224 238 241 241 241 241 241 241 241 232 241 241 238 238 241 
238 233 225 233 241 245 245 241 241 241 134 121 98 88 110 99 84 69 68 84 
121 113 118 125 104 119 128 88 105 105 126 97 120 121 127 89 66 55 42 107 
80 92 126 93 95 108 124 121 113 115 113 111 105 115 115 115 100 107 100 
91 114 124 180 205 217 223 216 194 202 203 207 224 225 232 228 232 241 
241 241 241 241 241 238 238 241 238 232 236 238 241 238 232 230 238 238 
241 245 241 241 86 131 131 117 117 107 57 106 80 82 98 105 97 110 137 130 
110 139 127 120 112 127 112 99 84 95 80 102 96 115 112 128 106 70 99 120 
105 115 113 128 133 111 119 141 132 113 117 114 110 132 148 183 224 201 
218 230 224 208 193 209 223 227 232 241 238 233 238 238 241 241 241 238 
238 225 241 241 233 230 232 238 238 237 231 232 232 245 241 241 241 116 
124 124 109 118 120 118 94 102 104 118 110 123 118 110 132 149 149 134 
124 114 128 124 110 115 116 126 142 108 103 111 132 112 81 106 117 142 
174 185 187 198 190 198 200 194 183 149 133 181 198 205 208 230 230 218 
223 230 216 215 224 232 232 238 241 241 233 232 233 241 241 238 232 233 
230 232 233 233 225 230 238 232 225 225 233 232 238 241 241 241 139 118 
124 131 106 120 134 108 106 101 111 76 64 97 94 95 125 132 126 120 96 130 
131 150 149 157 135 149 172 149 110 101 160 196 198 165 181 210 215 213 
198 203 189 184 206 197 131 127 180 192 183 196 199 195 210 202 216 223 
230 232 241 237 241 241 241 238 232 233 238 233 237 232 230 232 232 233 
230 222 222 231 230 231 225 237 238 233 241 245 241 100 152 113 125 115 
123 112 117 104 121 144 147 129 96 128 121 105 157 142 134 139 112 105 
117 95 123 124 131 136 99 121 131 152 137 141 139 128 82 40 72 50 78 70 
56 106 89 55 81 139 73 46 91 103 131 198 215 208 185 200 207 219 227 238 
237 238 241 238 232 232 238 238 224 222 231 223 225 223 209 199 217 216 
217 230 232 232 241 241 245 241 113 88 126 118 115 109 112 122 123 129 
167 154 125 158 130 131 112 132 125 138 124 118 135 131 102 124 135 134 
125 106 143 145 133 62 50 49 65 79 66 63 37 32 63 76 73 56 61 69 130 87 
62 66 93 117 142 165 159 144 156 165 178 209 233 237 233 232 238 232 228 
241 233 225 217 224 216 217 205 198 205 209 211 208 218 232 232 238 241 
245 241 131 95 111 127 130 114 122 124 187 222 223 223 191 164 119 99 91 
108 72 73 139 107 119 107 106 76 131 117 131 158 144 140 103 75 58 61 63 
72 70 68 70 51 56 52 45 48 62 66 66 88 66 89 124 123 62 41 58 85 99 134 
159 186 232 232 232 233 238 232 232 238 238 225 223 217 217 214 198 172 
197 205 208 201 209 225 230 232 241 241 241 161 125 110 132 143 89 112 
141 237 250 245 253 248 240 231 231 205 179 143 118 114 95 44 73 95 62 
92 105 110 116 115 103 85 60 56 62 77 72 62 68 58 49 58 61 56 62 60 71 
71 64 62 58 94 115 94 74 77 108 157 165 184 145 221 233 241 241 241 233 
233 241 241 225 223 216 222 214 206 167 173 192 211 209 200 216 225 232 
233 241 245 118 126 153 125 108 86 146 204 195 111 78 68 110 142 171 175 
184 184 195 202 206 213 205 191 174 151 140 108 76 71 106 96 60 52 64 65 
72 69 62 53 49 53 62 58 53 58 53 61 58 71 63 62 40 62 75 72 66 85 139 153 
183 160 172 237 248 245 241 241 241 238 238 230 230 216 223 202 191 168 
173 156 180 198 198 209 216 230 238 238 241 135 135 144 143 128 164 135 
155 88 0 0 0 0 0 15 55 74 25 63 99 146 199 223 231 231 232 224 199 5 31 
52 66 51 45 45 49 46 45 43 40 46 53 53 51 44 44 61 41 67 64 52 54 53 68 
49 63 56 64 101 126 175 184 150 183 245 245 241 241 241 241 241 233 230 
225 217 214 198 159 148 157 146 183 178 214 223 232 238 238 241 126 139 
115 93 86 148 160 169 84 19 36 36 34 35 25 33 18 38 16 13 18 90 141 173 
168 198 219 177 0 35 57 66 63 45 57 51 49 53 38 48 51 61 69 53 35 60 52 
45 63 55 33 48 54 46 53 53 56 59 79 87 175 220 153 20 156 236 253 253 248 
241 241 235 238 233 216 217 209 173 131 152 148 163 175 184 206 229 232 
241 241 58 66 84 85 87 86 117 126 114 19 15 55 39 39 40 43 45 55 45 45 
33 50 72 71 84 7 4 1 25 52 65 75 66 51 44 65 62 45 61 69 67 61 61 53 45 
52 57 57 54 43 40 61 61 52 46 51 58 66 62 56 125 198 193 118 0 0 100 164 
236 253 241 238 232 233 225 222 217 217 157 141 146 134 157 164 180 217 
223 233 238 97 66 95 106 97 83 107 115 137 94 38 37 45 42 39 35 43 43 42 
42 40 30 61 66 47 25 6 37 35 53 54 71 59 44 52 52 52 44 62 70 65 58 61 
53 59 46 52 57 53 52 53 52 61 37 51 54 53 59 66 71 104 131 132 91 35 58 
0 0 88 194 245 241 238 232 231 224 224 208 189 142 149 142 134 171 162 
209 222 230 233 149 97 136 142 135 156 147 126 150 148 103 37 17 34 42 
43 38 39 39 35 38 39 35 34 41 30 29 29 34 53 57 65 60 46 60 54 51 53 52 
49 57 58 61 52 53 48 52 54 56 53 54 49 45 49 62 65 62 68 64 62 65 56 14 
33 39 44 47 43 3 0 20 245 245 241 233 217 223 208 192 151 151 171 131 157 
156 191 223 225 230 112 129 116 141 136 159 157 119 142 145 140 135 58 
9 45 55 42 39 29 34 29 34 35 30 30 41 42 42 29 43 61 44 39 57 54 52 52 
53 54 46 51 53 49 47 58 53 46 55 54 54 52 58 60 68 69 64 71 64 61 63 47 
45 41 46 60 45 47 48 35 5 138 238 238 238 238 230 220 217 185 142 136 153 
137 147 165 183 213 230 232 84 97 125 127 144 133 100 79 124 153 118 135 
132 61 10 51 42 34 34 34 33 29 30 33 28 38 38 37 25 50 66 58 58 51 53 59 
52 50 53 58 52 53 49 44 53 58 51 46 60 57 55 46 63 74 67 66 68 66 62 69 
61 46 61 52 52 60 47 40 64 121 162 179 182 205 223 232 233 224 199 172 
166 151 157 113 146 166 197 232 232 80 86 62 89 102 101 112 110 95 159 
167 185 154 152 54 31 47 35 34 29 33 29 29 29 46 38 45 38 29 51 66 66 58 
51 40 40 62 58 51 51 51 53 51 39 53 53 58 51 58 57 57 44 57 66 59 58 54 
58 66 68 75 53 53 47 61 53 60 46 74 27 0 0 0 51 94 172 204 224 225 191 
192 184 189 135 132 173 189 222 232 133 130 102 132 120 145 128 148 156 
115 91 104 124 145 144 113 13 14 29 34 34 34 29 43 12 28 30 25 50 57 61 
51 40 39 53 41 53 54 52 45 53 50 46 47 58 51 46 53 59 51 53 61 56 70 66 
67 65 62 70 73 68 59 55 55 53 52 51 52 52 45 47 41 47 32 29 49 39 130 212 
230 222 192 184 165 157 184 199 222 225 41 129 88 121 152 162 105 89 79 
81 65 43 106 85 105 115 125 80 11 37 15 29 24 24 29 25 28 52 66 52 52 53 
40 50 51 50 43 52 53 56 52 53 45 47 51 51 56 53 43 40 50 53 51 64 78 78 
72 66 61 66 62 58 44 58 52 44 40 41 53 41 44 50 52 53 49 35 8 0 15 164 
204 233 212 152 151 180 199 216 222 73 73 99 107 142 96 112 113 97 80 106 
53 87 56 60 87 129 140 114 93 67 43 51 53 70 79 75 90 80 58 61 52 53 50 
40 50 51 52 61 60 39 51 50 52 58 44 54 41 39 40 40 60 56 67 70 67 73 68 
66 62 68 54 52 61 43 40 40 30 40 34 40 40 40 53 56 46 47 49 26 20 92 221 
238 197 153 167 205 216 225 85 85 90 97 137 149 146 112 105 92 73 73 125 
62 20 58 94 122 139 126 106 131 120 132 130 130 103 97 77 56 46 55 54 51 
52 58 58 46 46 51 44 46 58 53 58 56 40 35 35 35 41 39 51 76 82 80 63 63 
57 63 60 52 52 55 40 40 40 35 40 30 39 30 35 40 53 50 52 54 40 54 0 141 
238 223 192 181 189 208 224 65 91 68 107 103 110 114 116 97 115 134 126 
116 137 121 124 118 101 108 117 114 129 121 118 105 126 120 104 91 58 52 
52 59 39 61 66 52 61 60 52 51 46 51 59 35 52 34 30 35 50 38 58 72 89 88 
82 82 76 65 60 52 41 54 45 38 32 17 39 35 30 30 29 30 40 40 43 52 53 55 
53 0 110 238 214 182 191 208 202 219 101 100 119 107 135 88 89 111 62 82 
149 142 121 125 130 129 128 125 155 150 116 106 98 112 138 135 107 98 81 
63 58 45 59 52 58 62 52 51 44 53 52 57 59 56 57 40 35 34 41 38 69 78 74 
77 87 93 89 84 74 72 54 45 62 42 18 86 60 20 34 39 39 29 29 39 39 43 43 
54 45 36 0 183 233 189 144 164 213 209 217 34 18 73 90 126 71 108 98 109 
182 109 85 92 120 110 113 125 127 110 102 123 104 110 107 128 119 94 99 
93 80 67 51 57 61 53 51 51 58 53 46 53 72 59 46 59 50 35 40 26 62 80 90 
63 66 64 73 77 73 81 65 54 52 55 31 20 202 135 36 48 15 39 29 33 39 40 
52 47 38 6 24 126 238 231 176 161 142 175 199 208 101 94 80 85 75 63 105 
128 140 147 114 113 143 113 97 103 98 103 125 99 97 112 102 116 125 102 
59 85 90 88 66 64 44 61 62 43 57 44 53 61 41 58 52 51 59 62 50 46 74 73 
76 71 66 73 78 78 77 78 72 67 67 58 53 38 122 212 166 112 83 17 16 34 39 
39 52 56 36 4 25 182 220 214 157 181 190 145 170 197 200 120 101 109 127 
102 114 115 115 144 86 113 122 121 97 99 107 82 88 92 109 113 90 122 126 
120 99 61 63 95 90 71 66 29 53 52 51 52 44 61 50 46 51 44 62 53 56 51 61 
68 77 70 67 58 70 76 70 62 60 71 67 62 57 50 40 165 209 204 146 150 125 
12 4 2 16 24 4 3 20 152 225 225 165 86 175 205 165 157 192 195 120 118 
107 123 124 129 145 101 121 126 120 135 126 108 123 143 138 130 130 135 
149 132 144 142 113 156 88 37 72 75 83 71 49 52 61 53 52 43 59 61 58 46 
59 52 58 46 63 70 66 71 79 75 66 64 43 41 44 38 54 61 74 66 99 135 181 
213 209 168 170 165 132 84 46 15 20 97 124 183 209 217 214 117 72 148 197 
167 135 185 198 125 121 126 144 118 141 120 124 106 116 127 139 114 95 
66 98 158 113 149 168 113 97 81 99 86 106 110 85 63 67 80 64 39 58 35 52 
53 43 58 50 60 61 55 53 54 50 56 63 56 66 76 84 66 44 34 30 41 53 39 52 
77 67 137 177 188 207 216 198 171 141 173 196 177 169 177 209 217 231 194 
174 202 150 71 117 180 179 99 157 170 118 142 124 134 121 107 131 125 114 
80 79 107 120 83 102 98 117 87 90 126 115 98 130 118 133 117 120 103 53 
68 67 64 46 47 51 58 53 58 61 49 52 52 62 48 53 53 69 55 69 74 67 71 27 
35 12 35 26 39 44 60 88 121 173 196 186 194 213 212 134 119 165 147 160 
188 189 212 204 192 101 135 164 153 92 110 169 172 80 115 124 127 134 124 
128 95 106 127 121 116 135 102 88 118 110 132 120 96 93 118 116 147 131 
124 126 121 135 114 121 77 80 68 66 66 51 60 53 37 57 52 52 58 60 49 54 
61 68 64 62 76 80 66 63 40 30 25 20 26 27 65 58 137 173 188 190 204 207 
194 197 95 133 149 124 122 125 143 150 151 177 97 136 147 128 91 127 178 
157 76 105 99 113 115 123 153 131 116 137 136 153 159 108 120 126 103 144 
137 131 125 120 140 128 135 107 103 131 103 122 121 105 66 75 66 75 53 
55 50 58 49 52 52 48 44 52 54 58 56 61 66 68 80 58 56 35 39 39 39 36 49 
72 51 183 198 177 177 191 207 206 190 46 130 145 103 99 88 111 113 131 
162 109 128 144 104 90 120 183 184 94 103 91 121 135 110 105 124 107 134 
136 151 159 143 135 129 110 139 149 133 118 83 80 86 94 145 160 39 88 133 
121 106 74 73 79 53 65 74 71 44 49 50 61 65 60 46 45 61 61 61 53 71 76 
59 61 61 68 74 67 67 75 99 132 202 192 188 189 198 208 196 167 58 123 110 
82 85 87 99 99 102 114 99 121 129 87 85 118 178 205 130 91 91 118 122 116 
124 126 99 98 131 95 129 121 130 133 130 98 122 144 106 93 102 99 101 121 
132 74 86 121 135 146 93 83 74 59 66 74 65 45 39 53 39 63 65 53 53 58 56 
63 71 68 67 53 67 66 74 76 71 89 93 95 138 206 189 192 196 198 208 187 
147 69 115 98 82 82 89 88 105 104 98 92 121 127 92 83 92 156 205 146 83 
83 114 118 111 121 137 134 121 129 108 123 129 116 119 146 127 92 110 167 
139 96 6 66 112 68 123 75 89 110 153 147 83 67 69 71 72 68 58 57 52 56 
60 66 53 58 66 58 73 70 64 66 62 69 81 80 62 60 76 99 123 139 179 187 199 
191 198 217 170 102 83 94 78 77 85 68 75 99 94 94 88 93 106 99 90 108 147 
194 120 90 91 104 103 96 109 154 158 152 137 134 135 135 138 113 120 122 
99 94 61 96 89 75 57 93 120 132 142 161 154 140 133 91 79 58 71 81 64 59 
51 53 46 60 65 62 67 75 66 70 62 61 56 66 76 69 74 85 82 85 88 122 137 
162 181 197 191 208 216 136 72 80 76 76 69 75 76 76 89 80 88 81 90 104 
108 86 101 144 155 110 90 76 72 102 100 98 117 123 142 151 123 72 119 143 
123 151 136 137 113 42 65 43 74 133 143 121 116 128 124 119 88 121 112 
81 59 66 72 68 66 54 46 47 59 59 66 67 73 66 66 62 61 63 61 68 67 83 84 
88 90 102 102 121 156 167 177 168 207 208 101 76 75 80 78 71 68 63 75 91 
86 86 80 76 85 106 93 89 94 127 107 88 80 102 107 118 123 76 83 93 123 
142 91 111 92 80 105 106 121 123 80 84 71 96 141 132 139 99 93 70 43 56 
112 107 85 74 66 58 65 58 52 58 47 59 67 69 74 51 66 67 68 61 70 52 66 
71 75 76 79 91 92 114 124 163 161 174 168 205 198 57 69 75 71 67 69 76 
80 66 75 76 75 68 81 87 104 98 111 99 122 113 90 85 81 87 72 86 128 100 
125 114 109 115 110 98 114 108 67 114 145 125 110 94 89 68 66 94 103 76 
41 43 43 94 112 77 86 71 67 67 76 57 52 44 59 66 74 53 74 58 65 59 58 65 
67 68 76 74 80 84 80 91 111 111 162 174 179 180 199 170 36 75 76 64 66 
67 68 69 77 69 71 77 63 75 73 80 86 105 99 119 107 91 99 105 80 115 149 
132 108 101 94 73 53 74 125 130 99 110 106 59 64 97 100 40 33 57 59 74 
66 78 88 79 75 66 79 90 77 78 72 71 57 47 52 70 70 58 59 59 65 68 66 59 
58 66 74 67 71 82 80 85 106 129 149 171 158 165 176 196 109 47 74 74 66 
69 69 68 69 71 74 80 67 80 68 82 75 74 86 105 99 103 98 85 108 111 109 
114 111 113 121 110 111 102 75 105 110 105 114 97 82 102 79 102 50 48 62 
47 61 70 45 77 102 115 68 76 84 77 72 61 58 50 60 58 72 67 66 72 59 64 
67 66 62 60 60 66 83 75 86 83 83 104 108 131 179 161 147 165 177 65 63 
71 69 55 66 61 70 66 66 81 83 66 74 74 75 84 80 96 103 104 100 92 79 112 
140 91 101 132 130 111 104 78 149 116 111 89 105 121 98 76 103 70 80 98 
135 85 75 48 102 74 48 50 106 120 109 68 73 66 70 64 56 55 46 57 67 66 
66 68 66 59 57 74 62 58 59 66 74 83 88 96 98 83 81 121 124 132 162 124 
38 69 66 62 58 61 69 64 60 69 71 72 74 71 76 74 75 91 99 91 103 99 89 90 
89 131 89 92 128 132 111 113 137 136 121 107 104 107 109 115 87 98 92 102 
95 117 91 102 80 96 71 79 127 130 108 96 81 74 72 71 70 59 53 39 48 57 
72 71 71 67 63 63 62 63 66 73 69 61 83 86 89 80 85 99 103 123 143 144 72 
66 69 57 66 56 60 66 57 71 60 67 80 83 70 74 77 82 95 99 103 109 109 126 
157 66 84 102 102 126 132 114 99 145 96 120 107 109 94 81 108 82 107 102 
86 103 88 118 138 130 113 126 124 121 146 100 95 76 79 68 70 59 56 44 35 
48 67 76 78 67 66 68 59 63 62 66 76 76 75 82 88 88 84 77 80 103 130 146 
121 60 66 61 63 61 55 66 66 70 61 62 66 66 75 76 76 76 90 102 97 105 104 
129 154 178 79 50 78 34 93 130 102 122 130 119 103 102 79 57 66 94 142 
121 112 116 118 99 80 99 109 95 116 132 129 113 115 80 73 72 65 66 70 52 
39 48 62 73 76 78 76 71 65 53 60 62 66 70 76 74 83 73 76 74 89 89 115 136 
106 71 60 68 64 61 54 53 55 63 63 62 66 71 76 76 71 74 80 81 91 104 99 
130 154 158 184 121 154 143 111 102 115 111 126 120 92 120 130 112 118 
120 91 145 128 93 130 126 132 113 106 115 110 91 106 120 102 87 82 93 68 
70 54 64 51 51 51 61 72 75 77 69 67 56 60 53 66 74 62 68 89 90 85 76 80 
85 88 121 120 66 68 62 71 61 52 53 54 49 58 66 66 68 75 69 77 69 77 78 
96 95 95 93 159 145 133 183 66 85 130 114 101 138 102 107 108 116 94 110 
111 89 145 125 107 135 128 94 108 125 126 125 108 96 88 93 128 124 98 77 
79 64 61 61 59 64 63 64 77 76 76 79 76 80 66 66 70 76 66 128 61 83 81 91 
91 91 97 97 81 66 63 62 70 63 43 53 39 84 57 65 70 66 72 75 76 66 64 90 
82 78 99 94 110 114 104 124 182 106 133 93 108 88 108 145 135 103 119 114 
121 145 119 121 126 102 102 100 102 64 120 113 102 65 81 85 91 108 104 
85 90 76 70 70 67 66 69 73 78 74 81 79 86 80 73 75 76 86 89 99 88 79 90 
94 85 105 89 66 61 63 55 61 66 66 55 47 45 56 44 57 63 70 62 63 70 68 66 
79 79 71 89 96 100 101 98 84 146 205 83 121 144 95 107 116 130 141 148 
141 119 104 145 136 109 96 121 137 135 135 121 112 102 121 106 79 92 102 
96 81 86 87 73 74 78 65 73 74 69 75 81 75 71 85 84 76 80 84 105 98 73 75 
91 99 88 97 115 98 75 66 66 58 58 58 68 50 47 54 47 61 57 60 63 62 61 61 
66 79 71 75 72 90 91 99 89 91 89 150 200 16 2 110 143 129 144 118 105 136 
151 141 117 131 119 131 135 80 130 131 154 148 118 111 116 161 136 112 
102 82 85 81 84 68 73 67 76 69 67 68 78 84 91 88 88 85 76 94 90 100 85 
78 71 92 98 98 99 91 63 77 61 58 58 58 63 56 53 47 35 57 41 62 60 60 55 
66 61 72 83 75 81 82 88 90 89 91 84 81 188 222 103 71 98 127 130 135 126 
127 130 139 121 126 93 106 134 142 119 128 113 121 141 123 94 115 135 140 
145 130 86 91 83 68 64 65 74 73 87 80 74 72 83 92 88 73 61 58 142 172 165 
60 106 146 130 72 91 91 63 63 76 67 58 66 61 66 71 49 47 52 53 60 57 60 
61 55 62 74 80 85 77 85 87 88 86 88 91 96 99 186 212 134 109 114 47 145 
141 110 123 110 89 121 138 99 104 112 115 139 147 126 111 108 97 99 110 
161 118 123 103 72 92 77 71 72 80 79 79 83 74 74 72 68 61 74 101 176 164 
179 216 223 140 115 160 115 54 113 104 48 66 62 62 66 63 58 63 64 56 38 
34 55 47 57 59 63 66 63 90 82 82 90 90 90 91 79 96 89 97 116 170 163 149 
85 125 131 127 58 70 68 107 94 111 121 109 111 120 99 112 98 109 104 101 
119 113 120 127 91 65 49 59 74 57 54 51 58 64 61 67 67 65 60 109 193 213 
199 230 225 197 215 238 200 137 122 50 114 89 70 66 56 73 62 62 70 66 70 
63 56 47 47 61 56 57 65 63 75 85 82 90 83 90 88 95 85 80 93 89 105 121 
129 121 143 132 125 151 84 12 76 68 73 57 87 102 127 144 97 103 109 102 
131 121 98 119 83 116 133 101 44 46 55 50 26 52 40 48 58 53 39 44 58 21 
70 197 231 217 214 221 200 222 241 207 96 91 85 111 56 62 66 63 66 71 67 
61 70 71 56 51 52 52 53 50 66 71 74 79 82 82 84 85 91 91 91 69 76 91 90 
113 114 112 109 144 138 123 156 132 95 80 78 75 64 72 94 131 125 111 79 
111 112 110 130 137 133 102 88 106 111 28 38 53 45 52 40 40 40 51 40 52 
55 39 25 1 97 220 214 217 225 199 209 238 206 15 62 88 83 49 66 66 65 61 
56 62 63 66 69 48 53 53 43 61 55 66 76 84 81 76 78 75 90 87 89 84 71 77 
91 87 108 112 115 112 106 86 110 125 126 131 116 126 140 81 90 118 129 
124 143 158 93 107 159 183 160 91 135 127 118 127 44 43 53 57 39 56 49 
57 52 57 58 54 30 39 24 0 172 192 209 238 213 208 233 231 15 72 72 66 77 
66 70 61 61 66 67 49 68 74 52 52 64 56 70 72 79 79 80 81 82 93 85 82 96 
94 76 73 81 96 99 99 117 127 114 21 74 107 119 102 88 126 140 90 132 104 
93 74 169 153 103 124 135 112 106 124 110 127 119 135 109 49 43 58 73 69 
65 67 64 66 67 50 35 26 35 45 15 96 151 206 238 222 222 230 213 113 122 
60 75 65 78 69 72 66 67 68 63 70 70 41 45 53 53 63 70 83 66 66 70 73 81 
79 87 91 77 70 71 83 99 102 106 99 108 108 80 96 102 79 40 84 80 95 102 
135 87 83 97 107 164 128 93 103 69 63 110 130 113 107 110 110 66 53 43 
71 71 66 68 75 58 53 35 29 30 34 52 17 82 130 198 223 223 217 230 197 130 
146 107 67 75 72 83 66 61 67 73 56 70 68 52 42 61 56 69 72 70 77 77 79 
67 75 88 85 86 76 75 82 91 95 89 98 98 106 111 126 131 125 118 56 43 14 
52 70 117 132 95 111 111 75 110 99 50 74 76 111 8 66 73 103 118 74 39 51 
59 56 44 51 53 51 59 30 39 40 40 50 49 67 108 179 167 190 194 196 162 129 
128 99 76 89 72 80 61 58 63 66 71 71 63 45 35 42 61 77 69 82 74 76 75 74 
73 74 87 79 76 82 77 87 92 97 105 106 112 108 139 106 96 116 124 86 97 
80 51 57 149 146 66 69 102 60 66 87 111 146 144 102 98 138 121 84 103 68 
35 53 37 47 48 50 57 61 66 62 54 44 56 40 58 69 109 147 178 164 133 78 
130 135 113 84 74 77 67 71 50 52 61 64 74 53 39 42 56 66 63 66 75 76 74 
74 68 68 78 72 62 77 82 78 91 99 96 108 105 109 105 144 115 72 107 136 
106 170 153 79 105 110 135 107 80 66 106 70 86 111 140 138 152 109 112 
155 108 141 137 87 25 30 25 12 24 32 32 42 45 25 45 28 47 53 37 84 103 
122 126 115 107 143 149 121 107 74 65 65 70 61 52 61 68 66 53 38 39 57 
61 73 66 68 68 66 58 52 63 68 69 79 77 69 80 90 87 94 106 102 108 99 133 
146 134 159 164 142 126 128 146 131 117 96 110 122 111 146 159 111 158 
153 118 105 135 141 161 156 145 136 168 168 118 112 90 61 71 62 72 57 60 
48 55 68 85 110 128 131 121 98 63 104 97 101 135 110 70 64 62 70 51 56 
61 53 56 61 39 50 62 70 63 66 63 66 51 43 70 43 50 61 79 76 75 73 79 99 
100 98 104 108 109 95 141 112 114 165 137 143 143 92 126 65 49 58 72 121 
110 104 130 158 146 111 96 129 153 107 31 126 145 122 103 76 111 135 153 
129 145 135 120 99 87 90 83 90 96 99 99 90 91 80 89 78 103 110 100 71 75 
66 61 68 68 53 48 61 53 42 46 70 63 68 63 61 64 96 120 146 75 43 68 79 
69 74 84 90 86 99 97 94 127 123 75 104 73 74 121 135 134 144 139 163 146 
114 95 88 86 52 2 36 112 111 126 118 111 159 105 51 111 145 133 94 70 70 
93 117 104 125 110 94 91 92 85 73 76 73 79 61 71 66 77 88 95 103 92 71 
88 83 49 67 62 73 53 56 55 55 44 49 70 61 71 63 54 146 138 113 123 106 
67 49 79 69 69 94 97 92 93 88 93 145 144 66 36 20 41 98 109 73 98 140 142 
144 128 100 103 130 116 117 121 24 42 93 85 41 90 98 78 85 109 104 91 80 
56 33 76 86 91 108 101 97 89 88 68 67 66 67 65 66 70 76 91 100 112 92 109 
127 91 69 65 66 69 53 51 52 53 56 55 66 63 66 72 66 168 182 88 118 141 
102 62 62 77 79 91 92 100 97 94 118 155 133 44 43 57 22 35 28 27 56 50 
108 124 138 112 100 135 130 145 192 102 108 104 135 93 97 109 90 57 49 
84 60 125 105 36 73 103 127 125 99 98 86 66 75 66 66 66 56 59 74 90 81 
103 113 95 120 106 111 88 63 54 74 61 40 56 48 56 55 61 61 57 120 95 96 
78 85 78 100 88 70 74 81 83 92 88 89 91 94 133 172 141 84 62 49 30 56 21 
29 10 14 48 48 78 88 113 113 168 73 111 120 119 100 140 152 138 136 128 
144 135 131 120 120 123 104 102 89 70 99 108 76 72 58 57 62 71 66 55 64 
66 85 78 97 114 99 123 126 105 93 63 58 69 68 45 51 56 52 55 73 70 67 146 
127 107 102 107 98 95 96 74 80 88 88 91 99 104 94 91 179 184 175 87 66 
2 19 44 58 10 15 31 80 78 94 97 133 125 159 159 123 113 100 106 118 154 
154 102 77 115 102 86 97 83 88 116 95 92 83 84 102 73 67 66 61 66 58 54 
47 61 54 69 82 99 112 85 83 107 86 41 66 61 69 61 41 57 48 57 65 68 63 
64 144 124 119 97 129 100 95 81 82 89 89 85 99 91 105 97 110 188 183 188 
78 74 86 95 68 146 116 107 77 106 97 107 131 112 111 140 130 122 137 121 
71 83 101 114 130 94 92 92 40 52 43 36 107 69 133 120 61 94 94 67 58 52 
49 46 52 60 57 63 71 74 93 114 100 0 3 35 45 65 58 56 61 46 52 55 50 61 
71 57 40 137 127 67 62 80 98 61 47 85 83 85 93 98 105 97 91 118 196 192 
200 111 112 104 94 97 106 112 113 109 86 57 66 45 43 59 50 102 99 127 136 
121 146 107 21 115 100 95 103 67 80 88 99 123 95 102 107 80 89 76 67 61 
41 55 51 52 51 61 55 65 82 91 101 74 102 99 83 120 151 99 58 49 47 60 73 
68 61 61 48 4 125 179 109 144 129 116 118 85 81 88 90 91 106 108 106 106 
140 197 207 224 103 86 74 117 110 78 102 95 133 102 102 93 43 40 49 3 69 
118 121 135 149 135 109 81 144 119 57 34 3 82 118 117 111 109 97 93 110 
91 57 40 72 62 52 42 52 52 47 46 62 76 93 122 177 158 164 151 147 147 86 
61 61 52 66 66 66 58 46 47 3 79 193 105 98 107 117 139 107 85 86 99 92 
97 104 111 104 156 199 204 225 101 133 134 151 140 108 103 165 179 119 
25 108 53 88 100 123 55 103 80 63 83 73 17 17 95 85 115 107 115 139 109 
116 116 135 124 127 129 89 13 35 44 71 40 44 69 42 42 55 61 75 99 119 145 
132 146 169 149 104 61 64 59 43 44 41 44 50 59 53 3 114 218 125 123 163 
131 131 112 79 92 97 91 89 96 115 129 175 209 222 232 142 128 131 135 164 
135 129 155 159 144 141 127 105 92 56 96 84 80 86 95 36 0 118 152 112 108 
149 149 128 99 116 91 119 135 124 125 76 84 38 38 39 42 65 54 39 34 39 
45 57 69 87 131 146 112 100 113 88 111 43 51 65 56 40 35 58 66 58 52 5 
79 193 130 125 159 125 103 96 82 89 97 84 99 97 119 160 198 205 223 236 
171 141 133 119 124 134 103 105 132 140 141 137 133 91 106 65 73 117 136 
130 133 99 113 149 119 111 138 149 125 92 96 106 142 121 115 120 143 110 
11 34 30 30 29 56 65 38 28 41 49 75 116 98 114 97 112 91 121 143 35 10 
35 27 42 14 39 34 30 29 39 4 75 109 85 83 85 100 92 86 78 84 84 97 96 131 
172 209 214 230 222 130 115 135 110 118 135 119 96 101 128 140 178 179 
108 131 144 129 147 142 141 139 149 134 131 125 139 150 142 149 150 138 
135 127 143 119 112 157 144 3 33 40 38 37 28 52 59 33 34 40 84 128 104 
77 83 84 112 132 146 83 26 25 37 37 30 38 46 46 25 34 1 117 135 124 77 
90 90 84 79 72 85 93 89 94 131 173 207 217 230 216 104 95 109 96 131 101 
117 133 146 159 167 226 179 144 151 140 135 127 122 126 135 147 114 104 
132 120 155 163 144 168 124 116 142 110 107 82 148 148 18 34 38 37 37 37 
30 52 74 23 10 98 112 107 77 98 135 127 119 116 76 35 31 37 44 44 37 38 
38 38 28 16 159 150 143 154 135 90 75 69 64 86 76 83 89 123 160 214 217 
230 213 98 61 110 118 116 139 109 87 115 134 125 103 51 105 114 112 102 
80 145 128 119 157 153 142 129 128 134 129 107 118 103 83 81 33 46 83 82 
89 63 47 30 40 37 42 27 28 37 81 132 152 135 148 140 128 131 111 105 130 
66 24 29 37 42 40 44 37 38 37 29 50 117 120 134 165 122 66 64 72 74 72 
63 77 91 121 136 197 223 223 170 105 70 96 102 100 108 125 127 108 124 
20 33 74 122 96 118 83 80 130 120 122 106 143 149 89 116 93 78 101 101 
76 56 62 45 50 68 58 70 66 46 33 45 37 37 28 28 39 45 133 149 125 124 118 
132 119 106 44 114 108 18 26 44 37 44 38 37 38 37 3 79 96 119 105 103 95 
74 76 63 66 59 59 63 85 104 100 157 222 223 156 129 140 143 124 110 97 
120 84 109 148 142 138 110 109 90 110 94 100 94 97 102 104 61 73 83 57 
62 69 79 29 10 38 39 33 34 39 16 52 84 70 33 36 30 30 41 46 100 116 73 
97 111 89 4 60 92 112 94 77 91 61 26 29 44 37 42 38 38 13 26 116 137 121 
110 97 90 71 76 64 66 58 57 57 76 78 80 120 208 222 146 74 94 126 149 104 
116 135 132 102 105 124 118 98 87 102 78 64 72 38 57 100 80 63 45 90 111 
120 88 28 39 29 33 54 33 25 29 20 68 99 66 38 52 51 51 44 60 113 131 135 
130 127 121 90 112 113 98 70 40 56 55 30 38 42 42 38 38 28 35 65 122 135 
118 120 100 89 77 66 68 66 70 58 70 75 96 105 104 196 219 134 13 64 116 
123 97 99 96 110 91 80 90 113 104 78 93 83 40 58 55 68 63 62 55 75 63 70 
85 41 20 33 38 44 58 65 14 14 46 38 46 68 38 55 52 55 62 75 111 114 126 
102 115 144 121 120 104 88 75 62 57 52 66 18 30 13 30 28 39 88 116 90 88 
124 123 110 94 75 72 55 60 67 69 70 74 83 64 66 192 218 141 39 19 88 70 
58 9 83 124 112 99 102 83 115 108 76 76 57 46 57 49 44 30 29 50 63 32 66 
78 17 51 26 44 65 76 56 82 97 101 77 49 46 61 55 40 59 90 116 110 76 63 
61 75 116 118 80 90 94 84 100 80 102 71 65 45 34 52 69 84 104 19 67 64 
58 94 95 81 70 51 58 59 59 61 61 107 123 118 208 220 122 51 53 43 78 97 
58 43 83 127 78 106 111 67 71 51 78 56 34 33 29 28 50 66 108 75 41 44 55 
93 86 81 44 55 91 73 80 63 97 111 60 37 60 40 55 58 107 142 103 52 63 47 
49 46 44 61 74 61 66 95 74 86 83 85 88 62 4 17 56 66 70 73 34 33 94 99 
76 83 59 58 53 53 53 40 93 136 141 198 236 189 118 91 98 66 14 64 82 52 
4 99 105 96 140 127 70 70 41 33 28 29 29 89 39 60 82 63 54 35 77 73 84 
66 44 56 38 58 83 163 126 74 33 63 48 55 42 154 178 23 1 55 38 35 39 27 
55 53 49 26 50 63 44 48 66 64 94 99 87 100 35 61 35 29 17 90 98 76 80 63 
51 46 52 55 45 44 62 126 198 238 223 116 99 111 99 107 107 86 93 52 101 
106 88 70 62 28 52 41 42 49 31 54 57 38 33 82 62 75 69 38 27 21 69 100 
73 51 78 60 109 74 57 44 46 49 55 7 172 211 53 1 39 29 34 29 28 29 34 34 
35 49 38 46 52 80 87 80 95 48 47 40 34 30 33 19 66 105 73 73 53 53 58 52 
56 48 48 16 83 189 238 230 118 142 125 107 115 98 94 119 158 102 107 97 
81 73 57 45 87 70 77 66 93 131 110 126 101 92 38 73 111 92 55 74 93 97 
111 109 107 78 68 66 65 53 49 49 19 148 227 114 0 29 33 39 28 29 26 26 
38 38 38 64 55 66 93 64 55 9 39 24 9 42 18 13 52 97 98 71 58 39 52 52 38 
39 39 57 41 64 173 225 222 135 158 125 135 124 117 123 124 137 149 111 
111 124 126 115 106 78 76 102 119 140 155 176 162 151 138 126 116 116 121 
107 109 85 107 89 91 108 70 78 69 56 52 51 50 11 140 227 143 0 49 45 39 
26 31 38 48 64 57 74 81 79 63 34 21 21 34 27 29 103 86 102 103 110 121 
94 61 56 45 38 40 34 35 39 53 26 70 175 230 214 92 146 157 127 117 106 
92 105 119 113 102 100 124 127 132 123 93 93 86 99 112 99 89 81 120 126 
137 116 105 126 118 141 88 78 88 66 58 76 66 67 58 44 53 50 15 127 231 
203 0 52 39 43 29 28 66 66 69 66 44 33 34 42 4 27 49 12 60 89 133 76 109 
125 129 151 108 54 55 41 29 29 29 34 34 56 18 43 175 230 218 
