P2
# Created by Paint Shop Pro 7
43 38
255
253 253 253 253 253 253 253 253 253 250 253 253 248 253 253 253 253 253 
253 253 253 253 253 253 253 253 253 253 253 253 253 253 253 253 253 253 
253 253 253 253 253 253 253 253 253 250 250 253 253 253 250 253 253 250 
253 253 250 253 253 253 253 253 253 253 253 253 253 253 253 253 253 253 
253 253 253 253 253 253 253 253 253 253 253 253 253 253 253 250 250 253 
253 253 253 253 253 253 253 253 253 253 253 253 253 253 253 253 253 250 
253 253 253 253 253 253 253 253 253 253 253 253 253 253 253 253 253 253 
253 253 250 245 253 253 250 253 253 253 250 250 253 250 253 253 253 253 
253 253 253 253 253 253 253 248 253 253 253 253 253 253 253 253 253 253 
253 253 253 253 253 253 253 253 253 253 253 245 250 245 245 250 250 250 
250 250 250 250 253 250 250 253 253 253 253 250 250 253 253 253 253 253 
253 253 253 253 253 253 253 253 253 253 253 253 253 253 253 253 253 245 
250 245 250 245 250 245 248 245 250 250 253 248 253 253 250 250 253 253 
253 253 253 253 253 245 253 253 253 253 253 253 253 253 253 253 253 253 
253 253 253 253 253 253 250 245 250 250 250 250 250 253 250 253 253 255 
253 255 255 255 255 255 253 253 253 253 253 253 253 248 250 253 253 248 
253 253 253 253 248 253 253 253 253 253 253 253 253 250 250 250 245 253 
250 250 250 245 250 236 223 223 221 221 221 228 236 250 253 253 245 253 
253 253 253 253 253 253 253 253 253 253 253 253 253 253 253 253 253 253 
253 253 250 253 250 245 250 250 248 245 253 213 97 107 95 109 90 100 96 
88 183 250 250 250 248 253 253 253 253 250 253 253 250 253 253 253 253 
253 253 253 253 253 253 253 253 253 253 253 245 250 245 245 253 253 208 
75 121 118 116 114 123 116 91 167 250 253 250 253 253 253 253 253 253 253 
253 253 253 253 253 253 253 250 253 253 253 253 253 253 157 164 160 253 
248 253 250 223 203 169 103 120 116 115 120 122 116 88 191 250 253 248 
250 250 253 253 248 253 253 253 253 253 253 253 253 253 253 253 245 253 
253 253 253 106 105 44 255 255 255 243 59 82 94 121 115 121 121 123 110 
115 28 244 253 250 253 245 250 250 250 245 253 253 248 250 253 253 253 
253 253 253 253 253 253 253 253 253 138 140 131 149 121 170 248 107 108 
136 146 148 119 127 131 145 121 173 255 253 245 250 253 245 253 250 245 
250 250 253 253 250 250 243 243 238 236 243 250 250 250 250 253 131 136 
137 92 106 116 245 107 114 130 139 143 129 108 116 129 84 182 253 245 248 
250 245 250 245 250 248 245 250 253 253 157 134 130 114 111 113 123 136 
113 245 253 253 126 133 136 101 128 110 89 102 128 146 140 141 117 122 
128 125 81 203 255 248 250 253 250 250 250 250 253 250 250 250 253 100 
113 114 134 127 122 123 127 66 237 253 250 132 136 132 121 132 136 125 
130 127 133 138 136 97 118 115 115 79 175 253 253 253 255 253 253 253 250 
248 250 245 245 253 150 106 128 124 126 122 120 123 41 250 253 250 135 
140 132 136 141 145 136 131 123 135 141 148 139 112 125 121 114 79 90 88 
190 226 215 243 253 253 253 253 248 245 253 216 98 96 121 116 122 107 107 
139 255 250 250 107 121 120 116 129 126 120 129 122 115 142 151 150 95 
120 123 115 115 147 154 113 89 83 117 163 171 214 250 255 253 253 253 199 
105 134 143 117 134 149 237 253 253 250 102 92 96 106 102 101 107 107 106 
99 113 128 130 114 120 118 128 96 135 136 122 104 97 99 145 144 101 124 
187 185 204 221 166 115 126 129 127 115 143 243 253 253 253 127 94 108 
120 99 127 101 119 106 98 122 121 126 114 113 119 134 109 152 160 140 115 
111 114 160 154 164 161 69 95 72 103 121 113 116 127 127 125 142 243 253 
253 250 113 120 115 121 114 119 119 117 114 123 107 114 116 107 106 112 
116 118 127 153 155 159 148 118 146 144 143 123 130 120 109 152 165 152 
105 104 124 108 144 250 248 253 245 113 122 114 130 120 131 117 130 122 
130 116 131 118 96 108 103 103 111 118 141 149 152 161 139 138 147 131 
138 158 132 157 132 155 150 126 111 129 129 142 243 253 250 250 132 125 
127 138 137 139 146 146 138 147 146 146 131 101 126 129 123 127 99 106 
115 142 151 143 147 152 132 135 144 128 144 129 152 146 136 106 122 120 
151 243 253 250 250 99 108 115 123 117 123 124 131 145 141 152 164 130 
110 118 120 133 135 116 115 113 104 101 99 101 103 114 115 134 120 126 
142 164 158 132 99 122 119 148 245 253 250 250 107 107 109 122 121 118 
116 120 126 143 153 155 123 85 103 99 99 113 118 114 118 114 120 121 114 
112 115 107 109 106 116 141 153 168 144 116 113 105 159 245 253 250 253 
121 111 113 117 111 114 109 130 140 141 138 149 121 83 112 117 129 135 
130 127 118 116 114 115 113 114 120 129 122 121 114 108 107 107 112 96 
115 102 157 243 253 250 253 114 121 111 114 116 107 109 135 141 152 118 
98 126 74 135 137 145 151 147 147 135 140 138 132 125 131 118 114 114 109 
115 122 121 128 115 114 123 121 106 191 253 250 250 115 113 107 119 121 
115 113 125 137 144 125 114 127 80 124 146 153 154 154 152 147 145 152 
150 147 145 138 130 130 124 122 113 108 123 115 120 127 122 145 243 253 
250 250 107 104 114 107 114 117 120 113 123 139 132 119 136 87 138 151 
154 154 151 155 146 147 149 154 152 154 154 160 156 149 138 139 139 130 
120 99 67 56 236 250 245 245 250 108 120 114 121 114 121 114 129 136 144 
132 126 136 92 151 147 146 153 140 149 163 152 155 147 151 154 146 154 
160 156 153 157 148 146 130 85 159 253 253 250 248 250 250 108 107 109 
121 110 121 105 131 142 147 136 117 138 90 146 147 147 149 155 150 153 
154 156 146 162 154 149 154 154 150 161 153 160 154 145 73 236 253 245 
248 245 250 250 110 118 111 114 113 112 114 122 131 146 135 113 144 91 
153 155 154 145 160 149 146 149 146 151 139 135 159 160 158 151 156 154 
162 154 148 78 245 245 245 245 245 250 245 112 112 113 108 108 115 104 
113 131 146 135 115 143 96 159 154 146 148 147 155 146 155 147 136 109 
90 97 168 161 154 154 147 152 159 138 159 253 245 245 245 245 250 245 99 
95 103 103 102 98 111 92 121 135 137 122 146 105 152 144 160 155 148 146 
158 152 124 97 104 104 104 125 160 146 159 156 154 151 154 219 253 250 
245 250 245 245 245 98 98 108 97 104 99 100 98 98 102 106 102 122 89 153 
146 151 148 155 142 149 144 137 96 118 103 141 93 152 162 161 155 145 154 
144 211 253 245 245 245 245 250 245 105 114 109 109 112 116 121 125 122 
131 128 149 138 94 146 146 140 154 150 154 151 133 147 149 130 114 152 
96 138 161 146 147 156 155 142 206 253 245 250 245 250 250 245 121 111 
108 116 113 121 108 114 127 122 131 154 138 87 156 147 148 154 146 155 
142 125 138 115 132 121 152 115 104 152 147 146 154 155 150 212 253 245 
245 245 250 245 245 115 112 116 107 102 117 120 115 131 124 136 146 139 
87 143 139 144 146 146 153 126 131 143 99 110 99 152 115 109 130 156 154 
154 151 143 212 253 250 245 248 245 250 245 
